<svg xmlns="http://www.w3.org/2000/svg" fill="none" viewBox="0 0 685 152"><path fill="#fff" d="M235.643 147.919L166.246 2.914h18.863c8.589 0 16.41 4.984 20.091 12.806l38.111 81.282 37.804-81.206c3.681-7.821 11.502-12.805 20.09-12.805h19.017l-69.32 145.004h-15.259v-.076zM79.059 52.757l18.863 39.798C87.57 87.647 76.528 84.043 65.18 81.819l13.88-29.062zm7.745-49.843H71.237L0 147.919h17.253c8.589 0 16.027-4.294 21.164-12.729l14.953-28.986c26.609 3.297 50.15 13.113 71.391 41.715h33.433L86.804 2.914zm583.317 0c-8.435 0-15.26 6.824-15.26 15.26l.077 76.528-75.685-91.788h-22.468v145.005h13.88c8.435 0 15.259-6.825 15.259-15.26l-.076-76.375 62.112 75.455s12.115 16.103 29.905 16.103h6.212V2.914h-13.956zM481.177 21.7C466.837 7.516 447.974 0 426.656 0c-21.24 0-40.104 7.515-54.52 21.624-14.493 14.263-22.468 33.51-22.468 54.137 0 20.321 7.975 39.415 22.468 53.754 14.799 14.493 33.663 22.161 54.52 22.161 20.551 0 39.951-7.898 54.444-22.084 14.723-14.109 22.775-33.203 22.775-53.754 0-20.704-8.129-39.874-22.698-54.137zm-54.521 101.604c-26.225 0-47.619-21.317-47.619-47.543 0-26.301 21.318-47.619 47.619-47.619 26.302 0 47.62 21.394 47.62 47.62 0 26.225-21.395 47.542-47.62 47.542z"/></svg>